<?xml version="1.0" standalone="no"?>
<!DOCTYPE svg PUBLIC "-//W3C//DTD SVG 20010904//EN"
 "http://www.w3.org/TR/2001/REC-SVG-20010904/DTD/svg10.dtd">
<svg version="1.0" xmlns="http://www.w3.org/2000/svg"
 width="1137.000000pt" height="1137.000000pt" viewBox="0 0 1137.000000 1137.000000"
 preserveAspectRatio="xMidYMid meet">

<g transform="translate(0.000000,1137.000000) scale(0.100000,-0.100000)"
fill="#b62f45" stroke="none">
<path d="M3135 11360 c-788 -32 -1412 -177 -1828 -426 -227 -136 -409 -321
-572 -579 -67 -105 -197 -369 -250 -505 -258 -659 -414 -1534 -465 -2595 -13
-270 -13 -1075 0 -1365 38 -856 132 -1648 285 -2415 217 -1087 513 -1888 893
-2419 75 -105 236 -273 337 -351 705 -551 2214 -797 4090 -669 1775 121 3485
541 4363 1073 323 195 511 379 685 670 530 881 791 2684 652 4496 -98 1275
-402 2349 -824 2915 -402 540 -1564 1120 -3156 1575 -1454 417 -3046 642
-4210 595z m1060 -254 c2437 -191 5324 -1135 6058 -1981 371 -428 655 -1292
792 -2405 60 -495 79 -841 79 -1435 0 -565 -13 -836 -65 -1290 -129 -1145
-429 -2019 -827 -2412 -597 -590 -2277 -1102 -4212 -1282 -507 -48 -681 -55
-1300 -56 -593 0 -716 5 -1075 41 -832 84 -1464 265 -1883 541 -108 71 -296
257 -379 374 -244 346 -457 830 -638 1449 -240 824 -402 1809 -474 2890 -46
674 -39 1574 15 2200 118 1375 440 2377 904 2814 338 317 929 505 1780 565
197 14 982 6 1225 -13z"/>
<path d="M6170 10404 c-14 -2 -65 -9 -115 -15 -49 -6 -148 -26 -220 -44 -334
-86 -586 -234 -841 -496 -235 -242 -414 -529 -599 -964 -42 -99 -78 -181 -78
-182 -1 0 -67 -8 -147 -17 -358 -40 -649 -115 -865 -223 -329 -165 -539 -425
-713 -883 l-47 -124 -160 -44 c-378 -103 -624 -225 -799 -397 -235 -229 -387
-559 -446 -965 -93 -649 50 -1211 422 -1655 184 -220 385 -376 662 -515 l150
-75 37 -235 c174 -1095 469 -1898 833 -2266 326 -328 932 -522 1826 -584 155
-11 155 -11 240 -54 259 -133 574 -197 895 -182 379 17 689 112 964 297 l94
62 186 34 c974 177 1716 451 2088 771 323 278 564 900 677 1745 14 100 28 224
32 275 l7 92 81 67 c235 194 455 471 592 748 281 566 255 1177 -72 1706 -208
335 -570 662 -909 819 -44 21 -127 54 -185 76 -100 36 -109 42 -195 124 -273
260 -721 504 -1380 751 l-180 67 -31 219 c-115 787 -224 1147 -448 1477 -201
296 -502 494 -865 567 -92 19 -426 35 -491 23z m448 -254 c508 -103 826 -463
992 -1122 45 -177 156 -805 144 -817 -2 -2 -91 21 -196 52 -741 218 -1450 356
-2158 421 -192 18 -545 36 -707 36 -62 0 -113 2 -113 5 0 18 159 355 211 448
347 621 770 928 1370 996 126 14 338 6 457 -19z m-1603 -1680 c756 -37 1600
-183 2398 -415 233 -68 364 -109 371 -116 2 -2 9 -83 16 -179 12 -183 37 -440
42 -446 2 -1 87 -12 188 -24 102 -11 259 -32 350 -46 294 -45 1079 -208 1116
-232 18 -12 78 -110 131 -217 146 -290 267 -732 337 -1225 61 -424 80 -760 74
-1279 l-5 -394 -24 -19 c-44 -34 -323 -167 -429 -203 -305 -105 -618 -155
-1160 -186 -193 -10 -345 -30 -361 -46 -5 -5 -27 -148 -48 -318 -47 -362 -76
-528 -132 -753 -99 -403 -240 -728 -427 -991 -79 -111 -250 -294 -289 -309
-26 -10 -305 -50 -508 -72 -354 -38 -865 -64 -1164 -59 l-198 4 -44 30 c-24
16 -100 86 -169 155 -151 151 -241 279 -345 494 -212 435 -314 893 -385 1726
-28 338 -38 399 -64 405 -12 2 -340 41 -731 85 -390 45 -749 89 -796 100 -114
24 -169 40 -169 46 0 3 -7 67 -15 142 -77 706 -84 1482 -20 2132 32 319 99
711 158 918 l22 77 75 12 c394 62 876 56 1315 -17 66 -11 129 -22 141 -25 20
-4 21 -1 27 188 13 362 62 664 158 963 l30 93 42 4 c89 8 290 7 492 -3z m-789
-27 c-82 -274 -135 -549 -155 -816 -5 -65 -11 -121 -14 -124 -3 -3 -72 3 -154
13 -193 25 -805 26 -975 3 -87 -12 -108 -13 -108 -2 0 24 92 222 146 313 158
269 330 401 663 510 127 42 309 82 471 104 139 19 132 19 126 -1z m3967 -642
c219 -84 417 -170 607 -267 163 -82 335 -182 327 -190 -2 -2 -103 16 -225 41
-250 51 -513 95 -712 120 -74 9 -136 18 -137 19 -3 3 -23 256 -23 297 0 22 2
39 4 39 3 0 74 -27 159 -59z m-5749 -713 c-170 -739 -216 -1735 -129 -2758 8
-96 18 -192 21 -213 l6 -38 -59 29 c-32 17 -98 57 -148 89 -400 264 -657 635
-756 1091 -26 122 -38 495 -20 648 45 395 176 701 387 909 82 81 166 137 287
195 98 47 383 149 418 150 14 0 13 -12 -7 -102z m7612 -319 c572 -383 884
-967 824 -1539 -33 -321 -175 -645 -401 -921 -73 -88 -183 -209 -190 -209 -4
0 -9 199 -12 443 -3 292 -10 501 -21 617 -66 702 -185 1223 -390 1694 l-17 38
68 -37 c37 -21 100 -60 139 -86z m-7341 -3058 c50 -11 371 -52 715 -91 344
-39 635 -73 647 -75 25 -6 22 11 54 -345 61 -696 172 -1195 359 -1610 99 -219
233 -428 364 -567 59 -64 68 -62 -161 -33 -482 62 -866 181 -1120 345 -261
170 -461 496 -648 1060 -132 397 -199 685 -301 1303 -2 17 -3 32 -1 32 1 0 43
-9 92 -19z m7285 -143 c0 -53 -48 -370 -81 -533 -114 -571 -307 -1013 -526
-1203 -255 -220 -761 -437 -1390 -596 -247 -62 -422 -100 -429 -94 -2 3 11 25
29 49 316 414 521 998 621 1774 14 110 29 219 32 243 5 39 7 42 37 42 80 0
516 31 637 46 373 44 708 132 955 253 55 27 103 50 108 50 4 1 7 -14 7 -31z
m-3682 -2845 c-10 -2 -26 -2 -35 0 -10 3 -2 5 17 5 19 0 27 -2 18 -5z m-130
-10 c-10 -2 -26 -2 -35 0 -10 3 -2 5 17 5 19 0 27 -2 18 -5z"/>
</g>
</svg>
