<?xml version="1.0" standalone="no"?>
<!DOCTYPE svg PUBLIC "-//W3C//DTD SVG 20010904//EN"
 "http://www.w3.org/TR/2001/REC-SVG-20010904/DTD/svg10.dtd">
<svg version="1.0" xmlns="http://www.w3.org/2000/svg"
 width="1206.000000pt" height="1156.000000pt" viewBox="0 0 1206.000000 1156.000000"
 preserveAspectRatio="xMidYMid meet">

<g transform="translate(0.000000,1156.000000) scale(0.100000,-0.100000)"
fill="#b62f45" stroke="none">
<path d="M7305 11554 c-1817 -66 -3673 -564 -4760 -1279 -207 -136 -354 -253
-505 -405 -273 -273 -514 -630 -769 -1140 -59 -118 -129 -264 -155 -325 -528
-1200 -883 -2686 -967 -4045 -14 -236 -14 -789 0 -990 60 -830 249 -1423 574
-1800 339 -394 1150 -718 2311 -925 1469 -261 3241 -308 4692 -125 1093 138
1883 395 2302 750 547 463 1046 1758 1331 3455 371 2209 268 4320 -263 5420
-89 185 -166 309 -268 436 -434 539 -1333 873 -2583 959 -159 11 -772 20 -940
14z m619 -234 c926 -31 1616 -172 2136 -436 384 -195 612 -417 795 -774 438
-858 593 -2426 419 -4250 -201 -2118 -783 -3925 -1428 -4436 -472 -375 -1456
-635 -2791 -739 -406 -31 -654 -39 -1200 -39 -658 0 -1089 20 -1655 75 -1587
155 -2811 512 -3249 949 -282 282 -471 784 -545 1450 -49 437 -49 1015 -1
1555 176 1965 920 4090 1742 4974 822 886 3029 1601 5153 1670 129 4 255 9
280 9 25 1 180 -3 344 -8z"/>
<path d="M3620 9109 c-878 -33 -1504 -234 -1871 -598 -161 -161 -280 -330
-399 -571 -217 -435 -352 -981 -412 -1655 -21 -237 -18 -1057 5 -1305 132
-1431 535 -2575 1112 -3155 158 -158 321 -270 532 -365 720 -321 1802 -356
3083 -100 1209 242 2304 696 2853 1182 79 71 226 239 309 354 198 277 386 651
523 1044 115 331 212 751 261 1129 9 72 23 140 34 160 10 20 131 231 268 468
304 526 332 598 332 838 0 364 -221 707 -554 861 -120 55 -214 76 -372 81
l-141 5 -114 112 c-189 185 -425 342 -779 520 -974 487 -2382 856 -3702 971
-153 13 -697 37 -753 33 -11 -1 -108 -5 -215 -9z m710 -239 c1622 -98 3506
-644 4374 -1268 79 -57 216 -178 216 -191 0 -4 -26 -19 -57 -35 -133 -65 -267
-183 -352 -310 -26 -39 -215 -362 -420 -718 -206 -357 -377 -648 -381 -648 -6
0 -655 1116 -743 1279 -129 238 -342 405 -612 477 -109 29 -361 27 -474 -4
-103 -28 -207 -75 -292 -132 -94 -63 -226 -202 -280 -296 -25 -43 -205 -356
-399 -694 -194 -338 -358 -621 -363 -627 -7 -9 -122 183 -394 655 -212 367
-405 694 -428 727 -123 173 -318 308 -532 367 -117 32 -364 32 -482 0 -239
-65 -443 -218 -571 -425 -162 -263 -184 -603 -57 -888 22 -49 1562 -2727 1655
-2879 183 -295 547 -470 899 -431 168 19 309 71 448 164 86 58 213 191 263
278 24 41 207 358 406 704 200 347 367 629 371 629 9 -2 667 -1133 727 -1249
50 -97 107 -175 182 -251 375 -374 978 -374 1352 0 77 78 120 137 174 237 79
147 735 1277 738 1270 1 -5 -17 -86 -42 -182 -181 -703 -488 -1312 -836 -1659
-320 -319 -909 -627 -1700 -891 -686 -228 -1361 -369 -2090 -435 -232 -22
-786 -25 -970 -6 -746 77 -1204 268 -1513 631 -518 608 -867 1679 -979 3006
-17 203 -17 963 0 1155 67 755 224 1335 475 1762 195 332 418 527 757 663 275
111 626 183 1035 214 160 12 703 13 895 1z m-1175 -1650 c170 -54 308 -157
400 -300 23 -36 252 -431 510 -877 258 -447 471 -813 474 -813 5 0 806 1384
978 1687 36 65 127 158 204 208 249 166 559 166 809 0 74 -50 168 -145 205
-210 208 -366 971 -1685 975 -1685 3 0 210 354 460 788 250 433 478 826 507
873 57 93 134 178 207 229 63 43 173 93 190 87 19 -8 95 -149 146 -272 157
-379 229 -892 201 -1424 -7 -124 -17 -234 -23 -245 -6 -12 -237 -412 -512
-891 -276 -478 -522 -905 -546 -948 -101 -179 -262 -302 -461 -351 -86 -21
-252 -21 -338 0 -192 48 -354 168 -450 333 -21 36 -247 427 -501 869 -255 442
-466 800 -470 795 -8 -8 -881 -1520 -944 -1636 -100 -182 -269 -312 -467 -361
-82 -20 -252 -21 -336 -1 -182 43 -358 171 -449 327 -454 776 -1633 2839
-1650 2888 -143 410 102 848 530 946 88 20 261 12 351 -16z m6286 15 c278 -59
489 -264 560 -546 17 -69 18 -248 0 -319 -22 -91 -48 -144 -195 -400 l-141
-244 -12 209 c-18 334 -55 572 -128 825 -39 135 -108 315 -161 423 -40 78 -42
77 77 52z"/>
</g>
</svg>
