<?xml version="1.0" standalone="no"?>
<!DOCTYPE svg PUBLIC "-//W3C//DTD SVG 20010904//EN"
 "http://www.w3.org/TR/2001/REC-SVG-20010904/DTD/svg10.dtd">
<svg version="1.0" xmlns="http://www.w3.org/2000/svg"
 width="1190.000000pt" height="1160.000000pt" viewBox="0 0 1190.000000 1160.000000"
 preserveAspectRatio="xMidYMid meet">

<g transform="translate(0.000000,1160.000000) scale(0.100000,-0.100000)"
fill="#b62f45" stroke="none">
<path d="M6960 11363 c-1740 -31 -3672 -416 -4755 -948 -494 -242 -755 -460
-969 -812 -455 -748 -717 -2151 -692 -3718 8 -519 29 -850 82 -1285 138 -1122
440 -2027 836 -2498 474 -564 1886 -1205 3604 -1636 1892 -474 3706 -593 4809
-315 500 126 836 309 1091 592 739 821 1079 2958 869 5462 -92 1086 -300 2167
-570 2955 -86 250 -166 444 -275 665 -163 329 -285 509 -475 701 -136 137
-262 229 -445 328 -470 251 -1208 425 -2070 486 -176 13 -702 30 -820 28 -47
-1 -146 -3 -220 -5z m785 -243 c712 -36 1301 -132 1775 -290 662 -221 955
-483 1271 -1135 105 -218 166 -368 254 -625 334 -980 544 -2232 605 -3610 13
-292 13 -1035 0 -1310 -57 -1217 -251 -2175 -570 -2810 -215 -428 -446 -655
-840 -823 -651 -277 -1719 -353 -2990 -211 -1756 195 -3754 769 -4877 1400
-456 256 -705 467 -878 745 -624 1004 -892 3286 -614 5224 143 994 422 1739
788 2106 317 316 906 598 1761 844 965 276 2042 439 3295 498 166 8 837 6
1020 -3z"/>
<path d="M5375 9719 c-837 -40 -1636 -170 -2205 -359 -622 -207 -894 -417
-1127 -875 -49 -96 -70 -125 -163 -222 -138 -143 -221 -246 -328 -408 -555
-833 -619 -1887 -170 -2787 175 -350 367 -590 753 -939 591 -536 953 -856
1355 -1200 1660 -1418 2767 -2160 3220 -2159 88 1 139 14 245 64 447 211 1368
1039 2784 2501 806 832 1108 1156 1227 1315 280 374 449 778 525 1250 26 164
36 492 20 666 -85 910 -605 1714 -1406 2174 -352 203 -789 334 -1191 357
l-117 6 -81 59 c-268 193 -742 359 -1297 452 -583 99 -1351 138 -2044 105z
m1075 -239 c599 -34 1114 -114 1515 -235 117 -35 345 -122 395 -149 24 -14 23
-14 -25 -21 -100 -14 -292 -57 -402 -91 -651 -197 -1218 -633 -1571 -1207
l-60 -97 -27 47 c-111 191 -283 409 -456 578 -213 207 -410 350 -662 480 -418
216 -821 315 -1287 315 -433 0 -807 -84 -1200 -271 -140 -66 -144 -67 -105
-33 156 142 496 294 907 408 547 151 1141 236 1948 279 144 8 875 6 1030 -3z
m-2415 -620 c624 -44 1196 -303 1636 -740 239 -238 401 -481 569 -853 l63
-137 78 170 c166 361 306 568 554 815 440 441 1011 701 1630 744 l130 9 63
-66 c335 -350 610 -1184 696 -2112 134 -1439 -134 -2794 -666 -3355 -271 -286
-738 -424 -1493 -442 -940 -21 -2176 193 -3290 570 -707 240 -1236 511 -1495
767 -335 331 -564 1034 -621 1910 -21 324 -3 822 41 1130 44 308 129 644 222
880 32 82 32 82 193 204 402 304 886 481 1395 509 120 7 160 6 295 -3z m5178
-41 c567 -104 1126 -437 1495 -892 163 -200 338 -507 427 -750 95 -259 136
-492 142 -807 5 -249 -5 -376 -47 -580 -78 -376 -265 -768 -513 -1075 -241
-298 -2060 -2155 -2637 -2691 -601 -558 -987 -868 -1217 -977 -59 -28 -79 -32
-148 -32 -107 0 -212 35 -425 141 -541 270 -1352 862 -2450 1788 -238 200
-699 600 -696 603 1 2 56 -21 122 -50 655 -294 1575 -561 2439 -707 1377 -233
2468 -167 3021 185 214 136 394 351 550 657 236 465 380 1072 435 1838 15 210
15 795 0 1010 -50 700 -174 1301 -370 1795 -54 136 -167 355 -240 468 l-71
108 38 -6 c20 -4 86 -15 145 -26z m-7462 -1215 c-160 -792 -143 -1703 45
-2449 33 -130 107 -358 150 -459 19 -44 34 -82 34 -84 0 -2 -32 33 -71 79
-165 195 -345 508 -437 764 -116 320 -169 697 -144 1027 33 425 152 803 368
1159 61 102 75 122 81 116 2 -2 -10 -71 -26 -153z"/>
</g>
</svg>
